<svg width="16" height="17" viewBox="0 0 16 17" fill="none" xmlns="http://www.w3.org/2000/svg">
<g clip-path="url(#clip0_7_175)">
<path d="M15.9466 0.983273C16.0533 0.769939 16.0266 0.583273 15.8666 0.423273C15.7066 0.263273 15.52 0.236607 15.3066 0.343273L0.319978 6.31661C0.1422 6.38772 0.0355333 6.52994 -2.22437e-05 6.74327C-0.0355778 6.9566 0.0355333 7.11661 0.213311 7.22327L5.65331 10.6366L9.06664 16.0766C9.17331 16.2544 9.33331 16.3255 9.54665 16.2899C9.75998 16.2544 9.9022 16.1477 9.97331 15.9699L15.9466 0.983273ZM14.1333 2.84994L6.61331 10.3699L6.39998 9.99661C6.36442 9.96105 6.32887 9.92549 6.29331 9.88994L5.91998 9.67661L13.44 2.15661L14.6133 1.67661L14.1333 2.84994Z" fill="#7B7B7B"/>
</g>
<defs>
<clipPath id="clip0_7_175">
<rect width="16" height="16" fill="white" transform="matrix(1 0 0 -1 0 16.29)"/>
</clipPath>
</defs>
</svg>
