<svg width="54" height="53" viewBox="0 0 54 53" fill="none" xmlns="http://www.w3.org/2000/svg">
<path d="M38.0438 19.7441C37.4159 20.6763 36.631 21.4924 35.7241 22.1562C35.7241 22.2222 35.7241 22.3278 35.7505 22.4597L35.7769 22.7658C35.7736 25.3812 34.9943 27.9368 33.5376 30.109C32.79 31.2358 31.8889 32.2529 30.8603 33.1308C29.7518 34.0558 28.486 34.774 27.1234 35.2512C25.1873 35.9435 23.1191 36.1862 21.0753 35.961C19.0315 35.7358 17.0657 35.0486 15.3268 33.9515C15.7781 33.9779 16.1357 34.0043 16.4273 34.0043C18.6005 34.0043 20.5363 33.3419 22.2332 32.0171C21.26 31.987 20.3193 31.6598 19.5374 31.0796C18.7554 30.4993 18.1698 29.6938 17.859 28.771C18.5557 28.9399 19.2841 28.9122 19.9662 28.6905C18.914 28.4842 17.967 27.9166 17.2889 27.086C16.5927 26.2649 16.2164 25.2199 16.2293 24.1434V24.1038C16.839 24.4232 17.5278 24.5947 18.3234 24.6343C17.6906 24.2137 17.1725 23.642 16.8161 22.9709C16.4597 22.2997 16.2762 21.5504 16.2821 20.7905C16.2821 19.983 16.4669 19.2005 16.8785 18.418C18.0283 19.8581 19.4747 21.0336 21.1195 21.8646C22.8006 22.7165 24.6441 23.2001 26.527 23.2831C26.422 22.9389 26.3643 22.582 26.3554 22.2222C26.3554 20.937 26.8041 19.8365 27.7198 18.9366C28.1594 18.4894 28.6862 18.1375 29.2675 17.9025C29.8489 17.6676 30.4723 17.5547 31.0991 17.5709C31.7299 17.5713 32.3539 17.7008 32.9328 17.9513C33.5116 18.2018 34.0332 18.5681 34.4652 19.0276C35.5093 18.8301 36.51 18.449 37.421 17.9021C37.0879 18.985 36.3591 19.9028 35.3797 20.4725C36.2965 20.3559 37.1931 20.1153 38.0451 19.7573L38.0438 19.7441Z" fill="#7B7B7B"/>
</svg>
