<svg width="54" height="53" viewBox="0 0 54 53" fill="none" xmlns="http://www.w3.org/2000/svg">
<path d="M37.9227 20.9358C38.3713 22.663 38.3713 26.3195 38.3713 26.3195C38.3713 26.3195 38.3713 29.9759 37.9227 31.7031C37.7978 32.1896 37.5446 32.6336 37.1894 32.9888C36.8343 33.3439 36.3903 33.5972 35.9038 33.722C34.1765 34.1707 27.1553 34.1707 27.1553 34.1707C27.1553 34.1707 20.1341 34.1707 18.4068 33.722C17.9203 33.5972 17.4763 33.3439 17.1212 32.9888C16.766 32.6336 16.5128 32.1896 16.3879 31.7031C15.9393 29.9759 15.9393 26.3195 15.9393 26.3195C15.9393 26.3195 15.9393 22.663 16.3879 20.9358C16.5188 20.4522 16.774 20.0114 17.1282 19.6572C17.4824 19.303 17.9233 19.0477 18.4068 18.9169C20.1341 18.4683 27.1553 18.4683 27.1553 18.4683C27.1553 18.4683 34.1765 18.4683 35.9038 18.9169C36.3873 19.0477 36.8282 19.303 37.1824 19.6572C37.5366 20.0114 37.7918 20.4522 37.9227 20.9358ZM24.9121 29.6843L30.7444 26.3195L24.9121 22.9547V29.6843Z" fill="#7B7B7B"/>
</svg>
