<svg width="134" height="28" viewBox="0 0 134 28" fill="none" xmlns="http://www.w3.org/2000/svg">
<g clip-path="url(#clip0_7_67)">
<path d="M7.27998 20.76C7.07998 20.8267 6.90498 20.8017 6.75498 20.685C6.60498 20.5684 6.54664 20.3934 6.57998 20.16L7.32998 15.76L4.02998 12.61C3.89664 12.4434 3.85498 12.26 3.90498 12.06C3.95498 11.86 4.09664 11.7434 4.32998 11.71L8.87998 11.06L10.93 7.01002C11.03 6.81002 11.18 6.71002 11.38 6.71002C11.58 6.71002 11.73 6.81002 11.83 7.01002L13.88 11.06L18.48 11.71C18.68 11.7434 18.805 11.86 18.855 12.06C18.905 12.26 18.8633 12.4434 18.73 12.61L15.43 15.76L16.18 20.16C16.2133 20.3934 16.155 20.5684 16.005 20.685C15.855 20.8017 15.68 20.8267 15.48 20.76L11.38 18.61L7.27998 20.76Z" fill="#FFA133"/>
</g>
<g clip-path="url(#clip1_7_67)">
<path d="M33.18 20.76C32.98 20.8267 32.805 20.8017 32.655 20.685C32.505 20.5684 32.4467 20.3934 32.48 20.16L33.23 15.76L29.93 12.61C29.7967 12.4434 29.755 12.26 29.805 12.06C29.855 11.86 29.9967 11.7434 30.23 11.71L34.78 11.06L36.83 7.01002C36.93 6.81002 37.08 6.71002 37.28 6.71002C37.48 6.71002 37.63 6.81002 37.73 7.01002L39.78 11.06L44.38 11.71C44.58 11.7434 44.705 11.86 44.755 12.06C44.805 12.26 44.7633 12.4434 44.63 12.61L41.33 15.76L42.08 20.16C42.1133 20.3934 42.055 20.5684 41.905 20.685C41.755 20.8017 41.58 20.8267 41.38 20.76L37.28 18.61L33.18 20.76Z" fill="#FFA133"/>
</g>
<g clip-path="url(#clip2_7_67)">
<path d="M59.09 20.76C58.89 20.8267 58.715 20.8017 58.565 20.685C58.415 20.5684 58.3566 20.3934 58.39 20.16L59.14 15.76L55.84 12.61C55.7066 12.4434 55.665 12.26 55.715 12.06C55.765 11.86 55.9066 11.7434 56.14 11.71L60.69 11.06L62.74 7.01002C62.84 6.81002 62.99 6.71002 63.19 6.71002C63.39 6.71002 63.54 6.81002 63.64 7.01002L65.69 11.06L70.29 11.71C70.49 11.7434 70.615 11.86 70.665 12.06C70.715 12.26 70.6733 12.4434 70.54 12.61L67.24 15.76L67.99 20.16C68.0233 20.3934 67.965 20.5684 67.815 20.685C67.665 20.8017 67.49 20.8267 67.29 20.76L63.19 18.61L59.09 20.76Z" fill="#FFA133"/>
</g>
<g clip-path="url(#clip3_7_67)">
<path d="M84.99 20.76C84.79 20.8267 84.615 20.8017 84.465 20.685C84.315 20.5684 84.2567 20.3934 84.29 20.16L85.04 15.76L81.74 12.61C81.6067 12.4434 81.565 12.26 81.615 12.06C81.665 11.86 81.8067 11.7434 82.04 11.71L86.59 11.06L88.64 7.01002C88.74 6.81002 88.89 6.71002 89.09 6.71002C89.29 6.71002 89.44 6.81002 89.54 7.01002L91.59 11.06L96.19 11.71C96.39 11.7434 96.515 11.86 96.565 12.06C96.615 12.26 96.5733 12.4434 96.44 12.61L93.14 15.76L93.89 20.16C93.9233 20.3934 93.865 20.5684 93.715 20.685C93.565 20.8017 93.39 20.8267 93.19 20.76L89.09 18.61L84.99 20.76Z" fill="#FFA133"/>
</g>
<g clip-path="url(#clip4_7_67)">
<path d="M112.5 11.06L114.55 7.01002C114.65 6.81002 114.8 6.71002 115 6.71002C115.2 6.71002 115.35 6.81002 115.45 7.01002L117.5 11.06L122.1 11.71C122.2 11.7434 122.292 11.8017 122.375 11.885C122.458 11.9684 122.5 12.0767 122.5 12.21C122.5 12.3434 122.45 12.4767 122.35 12.61L119.05 15.76L119.8 20.16C119.833 20.3934 119.775 20.5684 119.625 20.685C119.475 20.8017 119.3 20.8267 119.1 20.76L115 18.61L110.9 20.76H110.75C110.583 20.7934 110.442 20.7517 110.325 20.635C110.208 20.5184 110.167 20.36 110.2 20.16L110.95 15.76L107.65 12.61C107.55 12.51 107.5 12.3934 107.5 12.26C107.5 12.1267 107.533 12.01 107.6 11.91C107.667 11.81 107.783 11.7434 107.95 11.71L112.5 11.06ZM115 17.56C115.067 17.5267 115.133 17.5434 115.2 17.61L118.65 19.36L118 15.66C117.967 15.46 118.017 15.2934 118.15 15.16L120.9 12.56L117.1 12.06C116.933 12.0267 116.817 11.9267 116.75 11.76L115 8.36002V17.51V17.56Z" fill="#FFA133"/>
</g>
<defs>
<clipPath id="clip0_7_67">
<rect width="22" height="15" fill="white" transform="matrix(1 0 0 -1 0.380005 21.2603)"/>
</clipPath>
<clipPath id="clip1_7_67">
<rect width="22" height="15" fill="white" transform="matrix(1 0 0 -1 26.28 21.2603)"/>
</clipPath>
<clipPath id="clip2_7_67">
<rect width="22" height="15" fill="white" transform="matrix(1 0 0 -1 52.19 21.2603)"/>
</clipPath>
<clipPath id="clip3_7_67">
<rect width="22" height="15" fill="white" transform="matrix(1 0 0 -1 78.09 21.2603)"/>
</clipPath>
<clipPath id="clip4_7_67">
<rect width="22" height="15" fill="white" transform="matrix(1 0 0 -1 104 21.2603)"/>
</clipPath>
</defs>
</svg>
