<svg width="28" height="27" viewBox="0 0 28 27" fill="none" xmlns="http://www.w3.org/2000/svg">
<path fill-rule="evenodd" clip-rule="evenodd" d="M18.1774 4.79793C17.069 4.74911 16.7312 4.73723 13.9153 4.73723C11.0862 4.73723 10.7616 4.75043 9.64266 4.80981C8.6187 4.84543 8.06582 5.02621 7.68052 5.17004C7.2254 5.33657 6.81395 5.6041 6.4771 5.95252C6.12471 6.29358 5.85326 6.70931 5.68275 7.16913C5.5376 7.54123 5.3687 8.09544 5.3212 9.12995C5.2605 10.2384 5.2605 10.5748 5.2605 13.392C5.2605 16.2079 5.27369 16.5457 5.3212 17.6528C5.32647 18.3258 5.44919 18.9934 5.68275 19.6255C5.87408 20.1071 6.10368 20.4687 6.4771 20.8302C6.84921 21.2023 7.18701 21.4319 7.69107 21.6246C8.31653 21.8568 8.97629 21.9782 9.64266 21.9848C10.7616 22.0455 11.0981 22.0455 13.9153 22.0455C16.7312 22.0455 17.069 22.0323 18.1774 21.9848C19.2119 21.9373 19.7648 21.7684 20.1382 21.6246C20.6317 21.4319 20.9933 21.1905 21.3535 20.8302C21.7269 20.4568 21.9433 20.1071 22.1478 19.6136C22.3814 18.9855 22.5041 18.3218 22.5094 17.6528C22.5582 16.5444 22.5701 16.2079 22.5701 13.3907C22.5701 10.5748 22.5569 10.237 22.4975 9.12995C22.4619 8.09544 22.2811 7.54123 22.136 7.15725C21.9696 6.70166 21.7021 6.28975 21.3535 5.95252C21.01 5.60435 20.5961 5.33353 20.1395 5.15816C19.7648 5.01301 19.2132 4.84543 18.1774 4.79793ZM9.55689 2.89517C10.6877 2.84767 11.0493 2.83579 13.914 2.83579C15.3655 2.81732 16.8196 2.83711 18.2711 2.89517C19.1472 2.91364 20.0142 3.0799 20.8349 3.38867C21.5369 3.65569 22.1732 4.07062 22.7007 4.60528C23.2417 5.12913 23.6613 5.76647 23.9279 6.4711C24.2314 7.29184 24.395 8.15877 24.4095 9.03362C24.4715 10.1658 24.4715 10.5141 24.4715 13.392C24.4715 16.2554 24.4583 16.617 24.4108 17.7359C24.3633 18.8681 24.1826 19.6387 23.9173 20.2998C23.6534 20.9991 23.2919 21.5876 22.7034 22.1775C22.1774 22.7146 21.5401 23.1299 20.8362 23.3941C20.1633 23.6461 19.3913 23.8387 18.2724 23.8876C17.1415 23.9351 16.7919 23.947 13.9153 23.947C11.0506 23.947 10.689 23.9351 9.55821 23.8744C8.43793 23.8387 7.66864 23.658 6.99436 23.3941C6.29568 23.1206 5.66061 22.7065 5.12854 22.1775C4.59365 21.6435 4.17573 21.004 3.90138 20.2998C3.65991 19.6268 3.46726 18.8681 3.41975 17.7359C3.37093 16.6183 3.35905 16.2449 3.35905 13.3907C3.35905 10.5392 3.35905 10.1777 3.43163 9.03362C3.46726 7.91466 3.64803 7.14406 3.91326 6.4711C4.19496 5.77729 4.60705 5.14392 5.12722 4.60528C5.65937 4.07313 6.29478 3.65551 6.99436 3.37812C7.66732 3.13664 8.43661 2.94267 9.55689 2.89517ZM10.1203 9.23683C10.6213 8.72482 11.2188 8.31725 11.8783 8.03772C12.5378 7.75818 13.2462 7.61223 13.9625 7.60832C14.6788 7.6044 15.3888 7.7426 16.0513 8.01491C16.7138 8.28722 17.3158 8.68824 17.8223 9.19474C18.3288 9.70125 18.7298 10.3032 19.0021 10.9657C19.2744 11.6282 19.4126 12.3382 19.4087 13.0545C19.4048 13.7708 19.2588 14.4792 18.9793 15.1387C18.6998 15.7982 18.2922 16.3958 17.7802 16.8967C16.7607 17.8942 15.3888 18.4493 13.9625 18.4415C12.5362 18.4337 11.1705 17.8636 10.162 16.8551C9.15338 15.8465 8.58332 14.4808 8.57553 13.0545C8.56774 11.6282 9.12284 10.2564 10.1203 9.23683ZM12.6037 16.324C13.4663 16.6813 14.4356 16.6813 15.2982 16.324C16.1609 15.9667 16.8463 15.2813 17.2036 14.4186C17.5609 13.556 17.5609 12.5867 17.2035 11.7241C16.8462 10.8614 16.1608 10.1761 15.2982 9.81874C14.4355 9.46143 13.4662 9.46144 12.6036 9.81878C11.741 10.1761 11.0556 10.8615 10.6983 11.7241C10.341 12.5868 10.341 13.5561 10.6983 14.4187C11.0556 15.2814 11.741 15.9667 12.6037 16.324ZM20.4179 8.48338C20.3005 8.60078 20.1612 8.6939 20.0078 8.75744C19.8544 8.82098 19.69 8.85368 19.524 8.85368C19.3579 8.85368 19.1935 8.82098 19.0401 8.75744C18.8867 8.6939 18.7474 8.60078 18.63 8.48338C18.5126 8.36598 18.4195 8.22661 18.3559 8.07322C18.2924 7.91983 18.2597 7.75542 18.2597 7.5894C18.2597 7.42337 18.2924 7.25897 18.3559 7.10558C18.4195 6.95219 18.5126 6.81281 18.63 6.69542C18.8671 6.45832 19.1886 6.32512 19.524 6.32512C19.8593 6.32512 20.1808 6.45832 20.4179 6.69542C20.655 6.93251 20.7882 7.25409 20.7882 7.5894C20.7882 7.92471 20.655 8.24628 20.4179 8.48338Z" fill="#7B7B7B"/>
</svg>
