<svg width="12" height="11" viewBox="0 0 12 11" fill="none" xmlns="http://www.w3.org/2000/svg">
<path d="M1.22023 10.2297C1.04423 10.0537 0.956239 9.85569 0.956239 9.6357C0.956239 9.41571 1.04423 9.21772 1.22023 9.04173L8.41386 1.8481L3.06813 1.7821C2.76015 1.8261 2.51816 1.69411 2.34217 1.38612C2.16618 1.07814 2.15518 0.781152 2.30917 0.495167C2.46316 0.209181 2.71615 0.0661887 3.06813 0.0661887H10.4598C10.7237 0.066189 10.9437 0.154185 11.1197 0.330176C11.2957 0.506166 11.3837 0.726155 11.3837 0.990142L11.3837 8.38176C11.3837 8.64575 11.2957 8.86574 11.1197 9.04173C10.9437 9.21772 10.7347 9.29472 10.4928 9.27272C10.2508 9.25072 10.0418 9.15173 9.86579 8.97574C9.68979 8.79974 9.6238 8.60175 9.6678 8.38177L9.6018 3.03604L2.40817 10.2297C2.23217 10.4057 2.03418 10.4937 1.8142 10.4937C1.59421 10.4937 1.39622 10.4057 1.22023 10.2297Z" fill="#101210"/>
</svg>
